<?xml version="1.0" encoding="UTF-8" standalone="no"?>
<!-- Created with Inkscape (http://www.inkscape.org/) -->

<svg
   xmlns:dc="http://purl.org/dc/elements/1.1/"
   xmlns:cc="http://creativecommons.org/ns#"
   xmlns:rdf="http://www.w3.org/1999/02/22-rdf-syntax-ns#"
   xmlns:svg="http://www.w3.org/2000/svg"
   xmlns="http://www.w3.org/2000/svg"
   xmlns:sodipodi="http://sodipodi.sourceforge.net/DTD/sodipodi-0.dtd"
   xmlns:inkscape="http://www.inkscape.org/namespaces/inkscape"
   width="65"
   height="65"
   id="svg2"
   version="1.1"
   inkscape:version="0.47 r22583"
   inkscape:export-filename="/home/samuel/projects/cpp/anathea1.6/images/cross.png"
   inkscape:export-xdpi="90"
   inkscape:export-ydpi="90"
   sodipodi:docname="Neues Dokument 1">
  <defs
     id="defs4">
    <inkscape:perspective
       sodipodi:type="inkscape:persp3d"
       inkscape:vp_x="0 : 526.18109 : 1"
       inkscape:vp_y="0 : 1000 : 0"
       inkscape:vp_z="744.09448 : 526.18109 : 1"
       inkscape:persp3d-origin="372.04724 : 350.78739 : 1"
       id="perspective10" />
    <filter
       inkscape:collect="always"
       id="filter3609">
      <feGaussianBlur
         inkscape:collect="always"
         stdDeviation="1.1356469"
         id="feGaussianBlur3611" />
    </filter>
  </defs>
  <sodipodi:namedview
     id="base"
     pagecolor="#66cc00"
     bordercolor="#666666"
     borderopacity="1.0"
     inkscape:pageopacity="0"
     inkscape:pageshadow="2"
     inkscape:zoom="1.4"
     inkscape:cx="230.56664"
     inkscape:cy="-67.995138"
     inkscape:document-units="px"
     inkscape:current-layer="layer1"
     showgrid="false"
     inkscape:window-width="1680"
     inkscape:window-height="1027"
     inkscape:window-x="0"
     inkscape:window-y="0"
     inkscape:window-maximized="1">
    <inkscape:grid
       type="xygrid"
       id="grid2816"
       empspacing="5"
       visible="true"
       enabled="true"
       snapvisiblegridlinesonly="true" />
  </sodipodi:namedview>
  <metadata
     id="metadata7">
    <rdf:RDF>
      <cc:Work
         rdf:about="">
        <dc:format>image/svg+xml</dc:format>
        <dc:type
           rdf:resource="http://purl.org/dc/dcmitype/StillImage" />
        <dc:title></dc:title>
      </cc:Work>
    </rdf:RDF>
  </metadata>
  <g
     inkscape:label="Ebene 1"
     inkscape:groupmode="layer"
     id="layer1"
     transform="translate(0,-987.36218)">
    <path
       style="fill:#000000;stroke:none;stroke-width:1px;stroke-linecap:butt;stroke-linejoin:miter;stroke-opacity:1;fill-opacity:1;opacity:0.42811502"
       d="M 10 10 L 10 20 L 22.5 32.5 L 10 45 L 10 55 L 20 55 L 32.5 42.5 L 45 55 L 55 55 L 55 45 L 42.5 32.5 L 55 20 L 55 10 L 45 10 L 32.5 22.5 L 20 10 L 10 10 z "
       transform="translate(0,987.36218)"
       id="path2818" />
    <path
       id="path3597"
       d="m 75,997.36218 0,10.00002 12.5,12.5 -12.5,12.5 0,10 10,0 12.5,-12.5 12.5,12.5 10,0 0,-10 -12.5,-12.5 12.5,-12.5 0,-10.00002 -10,0 -12.5,12.50002 -12.5,-12.50002 -10,0 z"
       style="opacity:0.31629393000000000;fill:#000000;fill-opacity:1;stroke:none;filter:url(#filter3609)" />
    <path
       style="opacity:0.69968051;fill:#000000;fill-opacity:1;stroke:none"
       d="m 140,997.36218 0,10.00002 12.5,12.5 -12.5,12.5 0,10 10,0 12.5,-12.5 12.5,12.5 10,0 0,-10 -12.5,-12.5 12.5,-12.5 0,-10.00002 -10,0 -12.5,12.50002 -12.5,-12.50002 -10,0 z"
       id="path3599" />
  </g>
</svg>
